<?xml version="1.0" encoding="utf-8"?>
<!-- Generator: Adobe Illustrator 18.1.0, SVG Export Plug-In . SVG Version: 6.00 Build 0)  -->
<svg version="1.1" id="Layer_1" xmlns="http://www.w3.org/2000/svg" xmlns:xlink="http://www.w3.org/1999/xlink" x="0px" y="0px"
	 viewBox="0 0 881.3 311.1" enable-background="new 0 0 881.3 311.1" xml:space="preserve">
<g>
	<path fill-rule="evenodd" clip-rule="evenodd" fill="#FFFFFF" d="M746.7,0.8h41.4v114.6l47.7-56h44.9l-55.2,65l55.8,65.6h-47.2
		l-46-56v56h-41.4V0.8L746.7,0.8z M726.2,49.1c-36.3,0.8-64.4,13.6-74.1,52.7c0.1,29,0.2,58,0.4,87c13.4,0,26.8,0,40.2,0
		c0-23.6,0-47.2,0-70.8c-0.2-16.3,13.3-28.3,33.9-28C726.5,76.4,726.4,62.8,726.2,49.1L726.2,49.1z M500.4,59.4v74.8
		c0.2,30.3,21.3,60.2,64.3,60.1c43.2-0.2,67-18.6,67-55.9V59.2h-40.3c0,21.4-0.5,43.8-0.5,65.2c-0.6,19.2-10.9,30.1-26.1,30.3
		c-17.3-0.4-26.7-13.6-25.3-29.2l0.4-66.2H500.4L500.4,59.4z M418.5,23.9h39.8v35.2H481v29h-22.8v101.5h-39.8V23.9L418.5,23.9z
		 M258.3,235.5c12,0,21.7,9.7,21.7,21.7c0,12-9.7,21.7-21.7,21.7c-12,0-21.7-9.7-21.7-21.7C236.6,245.2,246.3,235.5,258.3,235.5
		L258.3,235.5z M258.3,203.4c29.7,0,53.8,24.1,53.8,53.8c0,29.7-24.1,53.8-53.8,53.8c-29.7,0-53.8-24.1-53.8-53.8
		C204.5,227.5,228.6,203.4,258.3,203.4L258.3,203.4z M259.1,57.6c37.6,0,68,30.5,68,68s-30.5,68-68,68s-68-30.5-68-68
		S221.5,57.6,259.1,57.6L259.1,57.6z M257.9,94.2c16.7,0,30.3,13.6,30.3,30.3c0,16.7-13.6,30.3-30.3,30.3
		c-16.7,0-30.3-13.6-30.3-30.3C227.6,107.8,241.2,94.2,257.9,94.2L257.9,94.2z M368.6,0c13.3,0,24.1,10.8,24.1,24.1
		S382,48.2,368.6,48.2c-13.3,0-24.1-10.8-24.1-24.1S355.3,0,368.6,0L368.6,0z M151,0c13.3,0,24.1,10.8,24.1,24.1
		S164.4,48.2,151,48.2s-24.1-10.8-24.1-24.1S137.7,0,151,0L151,0z M347.6,58.7h40.2v130.4h-40.2V58.7L347.6,58.7z M130,58.7h40.2
		v130.4H130V58.7L130,58.7z M-0.1,1L0,44.6c4.3-1.1,9.3-1.4,13.8-1.4C43.2,43.3,67,67.1,67,96.4c0,29.4-23.8,53.2-53.2,53.2
		c-4.3,0-8.5-0.5-12.6-1.5l-1,43.9c4.5,0.6,9.1,1,13.6,1c53.3,0,96.4-43.2,96.4-96.4S67.1,0,13.8,0C9.2,0,4.5,0.3-0.1,1L-0.1,1z"/>
</g>
<g>
	<path fill="#FFFFFF" d="M594.7,263.8c0.6,9.6,10.2,14.2,21.1,14.2c8,0,14.4-1.1,20.7-3.2l3.1,15.8c-7.6,3.2-17,4.7-27.1,4.7
		c-25.4,0-39.9-14.7-39.9-38.1c0-19,11.8-39.9,37.8-39.9c24.2,0,33.3,18.8,33.3,37.3c0,4-0.5,7.5-0.8,9.2H594.7z M622,247.9
		c0-5.7-2.4-15.1-13.2-15.1c-9.8,0-13.8,9-14.4,15.1H622z"/>
	<path fill="#FFFFFF" d="M728.1,269.8c0,9.8,0.3,17.7,0.6,24h-20.2l-1.1-10.6h-0.5c-2.9,4.6-9.9,12.2-23.4,12.2
		c-15.3,0-26.3-9.5-26.3-32.6V219h23.3v40.2c0,10.9,3.5,17.4,11.8,17.4c6.4,0,10.2-4.4,11.6-8.1c0.6-1.4,0.9-3.1,0.9-5V219h23.3
		V269.8z"/>
	<path fill="#FFFFFF" d="M746.7,243.6c0-11-0.2-18.2-0.6-24.6H766l0.9,13.8h0.6c3.8-11,12.8-15.6,20.2-15.6c2.1,0,3.2,0.2,4.9,0.5
		v21.9c-1.8-0.3-3.7-0.6-6.3-0.6c-8.6,0-14.4,4.6-15.9,11.8c-0.3,1.5-0.5,3.4-0.5,5.2v37.9h-23.3V243.6z"/>
	<path fill="#FFFFFF" d="M877.5,255.6c0,27.4-19.4,39.9-39.5,39.9c-21.9,0-38.7-14.4-38.7-38.5c0-24.3,15.9-39.8,40.1-39.8
		C862.2,217.2,877.5,232.9,877.5,255.6z M823.4,256.3c0,12.8,5.4,22.5,15.3,22.5c9.2,0,14.8-9,14.8-22.6c0-11-4.3-22.3-14.8-22.3
		C827.6,233.9,823.4,245.3,823.4,256.3z"/>
</g>
</svg>
