<svg xmlns="http://www.w3.org/2000/svg" width="50.914" height="18.483" viewBox="0 0 50.914 18.483">
  <g id="bank-transfer-svgrepo-com" transform="translate(-4.207 -88.818)">
    <g id="Group_2946" data-name="Group 2946" transform="translate(16.248 88.818)">
      <path id="Path_1745" data-name="Path 1745" d="M146.165,179.38h4.523c1.665-.027,3.493.406,3.493,2.424a2.174,2.174,0,0,1-1.273,1.95,2.3,2.3,0,0,1,1.666,2.288c0,2.3-1.693,3.006-3.765,3.006h-4.644V179.38Zm2.518,3.805h1.95a.939.939,0,0,0,1.029-.921c0-.7-.5-.934-1.029-.934h-1.95v1.855Zm0,3.846H150.7c.8,0,1.354-.284,1.354-1.083,0-.853-.6-1.138-1.354-1.138h-2.018Z" transform="translate(-146.165 -179.379)" fill="#006e90"/>
      <path id="Path_1746" data-name="Path 1746" d="M223.691,179.389h2.559l3.615,9.668h-2.627l-.6-1.733h-3.372l-.609,1.733h-2.586Zm.162,6.067h2.193l-1.07-3.385h-.027Z" transform="translate(-211.288 -179.388)" fill="#006e90"/>
      <path id="Path_1747" data-name="Path 1747" d="M308.336,179.389h2.587l3.358,5.958h.027v-5.958h2.37v9.668h-2.587l-3.358-6.025h-.027v6.025h-2.37Z" transform="translate(-289.056 -179.388)" fill="#006e90"/>
      <path id="Path_1748" data-name="Path 1748" d="M392.957,179.389h2.519v3.71l3.182-3.71h3.128l-3.575,3.805,4.022,5.863H399.1L396.5,185l-1.029,1.083v2.979h-2.519v-9.668Z" transform="translate(-363.617 -179.388)" fill="#006e90"/>
    </g>
    <g id="Group_2947" data-name="Group 2947" transform="translate(4.208 100.363)">
      <path id="Path_1749" data-name="Path 1749" d="M50.6,279.159H48.611v5.166H46.877v-5.166H44.891v-1.492H50.6Z" transform="translate(-44.891 -277.527)" fill="#66cde7"/>
      <path id="Path_1750" data-name="Path 1750" d="M99.324,277.668h3.394c1.175,0,2.331.532,2.331,1.874a1.712,1.712,0,0,1-1.044,1.669v.018c.709.168.914.96.97,1.595.019.28.047,1.259.28,1.5h-1.716a3.222,3.222,0,0,1-.2-1.063c-.047-.671-.158-1.361-.97-1.361h-1.315v2.424H99.324Zm1.735,2.891h1.454a.713.713,0,0,0,.8-.783c0-.494-.392-.718-.876-.718h-1.38S101.059,280.559,101.059,280.559Z" transform="translate(-92.853 -277.528)" fill="#66cde7"/>
      <path id="Path_1751" data-name="Path 1751" d="M152.716,277.668h1.762l2.49,6.658h-1.809l-.41-1.194h-2.322l-.419,1.194h-1.781Zm.112,4.177h1.511l-.737-2.331h-.019Z" transform="translate(-137.703 -277.528)" fill="#66cde7"/>
      <path id="Path_1752" data-name="Path 1752" d="M211.015,277.668H212.8l2.313,4.1h.019v-4.1h1.632v6.658h-1.781l-2.313-4.149h-.019v4.149h-1.632v-6.658Z" transform="translate(-191.265 -277.528)" fill="#66cde7"/>
      <path id="Path_1753" data-name="Path 1753" d="M267.81,281.049c.037.783.522,1.035,1.259,1.035.522,0,1.063-.186,1.063-.681,0-.587-.951-.7-1.911-.97s-1.949-.7-1.949-1.921c0-1.455,1.464-2.023,2.714-2.023,1.324,0,2.657.643,2.667,2.145h-1.734c.028-.606-.541-.8-1.072-.8-.373,0-.839.13-.839.569,0,.513.96.606,1.93.877s1.93.718,1.93,1.921c0,1.688-1.436,2.229-2.9,2.229-1.529,0-2.881-.672-2.891-2.378h1.734Z" transform="translate(-239.78 -276.489)" fill="#66cde7"/>
      <path id="Path_1754" data-name="Path 1754" d="M321.608,277.668h4.9v1.389h-3.17v1.362h2.741v1.342h-2.741v2.565h-1.735Z" transform="translate(-288.71 -277.528)" fill="#66cde7"/>
      <path id="Path_1755" data-name="Path 1755" d="M369.535,277.668h5.306v1.389h-3.572v1.166h3.264v1.343h-3.264v1.268h3.665v1.492h-5.4v-6.658Z" transform="translate(-330.939 -277.528)" fill="#66cde7"/>
      <path id="Path_1756" data-name="Path 1756" d="M423.263,277.668h3.394c1.175,0,2.331.532,2.331,1.874a1.712,1.712,0,0,1-1.044,1.669v.018c.709.168.914.96.97,1.595.019.28.047,1.259.28,1.5h-1.716a3.215,3.215,0,0,1-.2-1.063c-.047-.671-.158-1.361-.97-1.361H425v2.424h-1.734v-6.658ZM425,280.559h1.455a.713.713,0,0,0,.8-.783c0-.494-.391-.718-.876-.718H425Z" transform="translate(-378.279 -277.528)" fill="#66cde7"/>
    </g>
    <g id="Group_2948" data-name="Group 2948" transform="translate(4.208 88.818)">
      <rect id="Rectangle_1051" data-name="Rectangle 1051" width="10.498" height="2.102" transform="translate(0 0)" fill="#d92b2b"/>
      <rect id="Rectangle_1052" data-name="Rectangle 1052" width="10.498" height="2.102" transform="translate(0 7.567)" fill="#d92b2b"/>
      <rect id="Rectangle_1053" data-name="Rectangle 1053" width="10.498" height="2.102" transform="translate(0 3.783)" fill="#d92b2b"/>
    </g>
  </g>
</svg>
