<?xml version="1.0" encoding="utf-8"?>
<!-- Generator: Adobe Illustrator 27.1.1, SVG Export Plug-In . SVG Version: 6.00 Build 0)  -->
<svg version="1.1" id="Layer_1" xmlns="http://www.w3.org/2000/svg" xmlns:xlink="http://www.w3.org/1999/xlink" x="0px" y="0px"
	 viewBox="0 0 56 23" style="enable-background:new 0 0 56 23;" xml:space="preserve">
<style type="text/css">
	.st0{fill:#FFFFFF;}
	.st1{fill:#4285F4;}
	.st2{fill:#34A853;}
	.st3{fill:#FABB05;}
	.st4{fill:#E94235;}
</style>
<g id="GPay-Light-themed-buttons">
	<g id="GPAY---SVGs" transform="translate(-185.000000, -400.000000)">
		<g id="GPay-Brand-Mark" transform="translate(185.000000, 400.000000)">
			<g id="GPay" transform="translate(0.261474, 0.261474)">
				<g id="Pay" transform="translate(17.615069, 0.825706)">
					<path id="Fill-1" class="st0" d="M8.66,3.04v5.41H12c0.79,0,1.45-0.27,1.97-0.8c0.53-0.53,0.8-1.17,0.8-1.91
						c0-0.72-0.27-1.35-0.8-1.88C13.45,3.31,12.8,3.04,12,3.04L8.66,3.04L8.66,3.04z M8.66,10.36v6.28H6.67V1.14h5.29
						c1.34,0,2.48,0.45,3.42,1.34c0.96,0.89,1.43,1.98,1.43,3.27c0,1.31-0.48,2.41-1.43,3.29c-0.92,0.88-2.07,1.32-3.42,1.32
						L8.66,10.36L8.66,10.36z"/>
					<path id="Fill-3" class="st0" d="M18.83,13.39c0,0.52,0.22,0.95,0.66,1.3c0.44,0.35,0.96,0.52,1.55,0.52
						c0.84,0,1.58-0.31,2.24-0.93c0.66-0.62,0.99-1.35,0.99-2.19c-0.62-0.49-1.49-0.74-2.6-0.74c-0.81,0-1.49,0.2-2.03,0.59
						C19.1,12.33,18.83,12.81,18.83,13.39 M21.41,5.68c1.47,0,2.64,0.39,3.49,1.18c0.85,0.79,1.28,1.87,1.28,3.24v6.54h-1.91v-1.47
						h-0.09c-0.82,1.21-1.92,1.82-3.29,1.82c-1.17,0-2.15-0.35-2.94-1.04c-0.79-0.69-1.18-1.56-1.18-2.6c0-1.1,0.41-1.97,1.25-2.62
						c0.83-0.65,1.94-0.97,3.33-0.97c1.18,0,2.16,0.22,2.93,0.65V9.95c0-0.69-0.27-1.28-0.82-1.76c-0.55-0.48-1.19-0.73-1.93-0.73
						c-1.11,0-1.99,0.47-2.64,1.41l-1.76-1.11C18.09,6.38,19.51,5.68,21.41,5.68"/>
					<g id="Group-7" transform="translate(15.084923, 3.759447)">
						<polygon id="Fill-5" class="st0" points="22.04,2.27 15.38,17.56 13.32,17.56 15.8,12.21 11.42,2.27 13.59,2.27 16.75,9.89 
							16.79,9.89 19.87,2.27 						"/>
					</g>
				</g>
				<g id="G">
					<path id="Fill-8" class="st1" d="M18.22,9.83c0-0.63-0.05-1.23-0.15-1.81H9.66v3.43h4.82c-0.21,1.12-0.83,2.07-1.78,2.71v2.23
						h2.87C17.25,14.84,18.22,12.54,18.22,9.83"/>
					<path id="Fill-10" class="st2" d="M9.66,18.54c2.41,0,4.43-0.79,5.91-2.15l-2.87-2.23c-0.8,0.54-1.83,0.85-3.04,0.85
						c-2.33,0-4.3-1.57-5.01-3.68H1.69v2.29C3.16,16.54,6.17,18.54,9.66,18.54"/>
					<path id="Fill-12" class="st3" d="M4.65,11.33c-0.18-0.54-0.28-1.11-0.28-1.71c0-0.59,0.1-1.17,0.28-1.71V5.63H1.69
						c-0.61,1.2-0.95,2.56-0.95,4c0,1.44,0.34,2.8,0.95,4L4.65,11.33z"/>
					<path id="Fill-14" class="st4" d="M9.66,4.25c1.31,0,2.49,0.45,3.42,1.34v0l2.55-2.54c-1.55-1.44-3.56-2.32-5.97-2.32
						c-3.48,0-6.5,2-7.97,4.91l2.96,2.29C5.36,5.81,7.33,4.25,9.66,4.25"/>
				</g>
			</g>
		</g>
	</g>
</g>
</svg>
