<svg xmlns="http://www.w3.org/2000/svg" width="35.586" height="27.613" viewBox="0 0 35.586 27.613">
  <g id="layer1" transform="translate(-1551.785 -1849.104)">
    <g id="g13" transform="translate(1551.785 1849.105)">
      <g id="g15" transform="translate(1.802 23.459)">
        <path id="XMLID_1775_" d="M2954.052,2902.827v-1.833a1.075,1.075,0,0,0-1.161-1.161,1.2,1.2,0,0,0-1.039.519,1.069,1.069,0,0,0-.978-.519.987.987,0,0,0-.855.428v-.367h-.641v2.932h.641v-1.619c0-.519.275-.764.7-.764s.642.275.642.764v1.619h.641v-1.619a.676.676,0,0,1,.7-.764c.428,0,.642.275.642.764v1.619Zm9.5-2.932h-1.039v-.886h-.641v.886h-.58v.58h.58v1.344c0,.672.275,1.069,1.008,1.069a1.711,1.711,0,0,0,.794-.214l-.183-.55a1.006,1.006,0,0,1-.55.153c-.306,0-.428-.183-.428-.489v-1.314h1.039Zm5.437-.061a.861.861,0,0,0-.764.428v-.367h-.641v2.932h.641v-1.649c0-.489.214-.764.611-.764a1.792,1.792,0,0,1,.4.061l.183-.611a2.019,2.019,0,0,0-.428-.031Zm-8.217.305a2.1,2.1,0,0,0-1.191-.305c-.733,0-1.222.367-1.222.947,0,.489.367.764,1.008.855l.305.031c.336.061.52.153.52.305,0,.214-.244.366-.672.366a1.684,1.684,0,0,1-.977-.305l-.306.489a2.16,2.16,0,0,0,1.252.367c.855,0,1.344-.4,1.344-.947,0-.519-.4-.794-1.008-.886l-.305-.03c-.275-.031-.489-.092-.489-.275,0-.214.214-.336.55-.336a2.2,2.2,0,0,1,.916.244l.275-.519Zm17.044-.305a.861.861,0,0,0-.764.428v-.367h-.641v2.932h.641v-1.649c0-.489.214-.764.611-.764a1.79,1.79,0,0,1,.4.061l.183-.611a2.019,2.019,0,0,0-.428-.031Zm-8.186,1.527a1.467,1.467,0,0,0,1.558,1.527,1.52,1.52,0,0,0,1.039-.336l-.305-.52a1.236,1.236,0,0,1-.764.275.867.867,0,0,1-.886-.947.9.9,0,0,1,.886-.947,1.235,1.235,0,0,1,.764.275l.305-.519a1.52,1.52,0,0,0-1.039-.336,1.467,1.467,0,0,0-1.558,1.527Zm5.926,0V2899.9h-.642v.367a1.1,1.1,0,0,0-.916-.428,1.529,1.529,0,0,0,0,3.055,1.028,1.028,0,0,0,.916-.428v.366h.642Zm-2.352,0a.888.888,0,1,1,1.771,0,.888.888,0,1,1-1.771,0Zm-7.667-1.527a1.528,1.528,0,0,0,.031,3.055,1.867,1.867,0,0,0,1.191-.4l-.305-.458a1.461,1.461,0,0,1-.855.305.824.824,0,0,1-.886-.7h2.169v-.244a1.349,1.349,0,0,0-1.344-1.558Zm0,.55a.715.715,0,0,1,.733.7h-1.527a.773.773,0,0,1,.794-.7Zm15.914.978v-2.627h-.641v1.527a1.1,1.1,0,0,0-.917-.428,1.529,1.529,0,0,0,0,3.055,1.029,1.029,0,0,0,.917-.428v.366h.641Zm-2.352,0a.888.888,0,1,1,1.772,0,.888.888,0,1,1-1.772,0Zm-21.443,0V2899.9h-.641v.367a1.1,1.1,0,0,0-.917-.428,1.529,1.529,0,0,0,0,3.055,1.028,1.028,0,0,0,.917-.428v.366h.641Zm-2.383,0a.888.888,0,1,1,1.771,0,.888.888,0,1,1-1.771,0Z" transform="translate(-2949.379 -2898.734)" fill="#fff"/>
      </g>
      <g id="XMLID_328_" transform="translate(0 0)">
        <rect id="rect19" width="9.622" height="17.289" transform="translate(12.982 2.352)" fill="#ff5f00"/>
        <path id="XMLID_330_" d="M2912.327,2250.5a11.025,11.025,0,0,1,4.185-8.644,11,11,0,1,0,0,17.289A10.979,10.979,0,0,1,2912.327,2250.5Z" transform="translate(-2898.734 -2239.502)" fill="#eb001b"/>
        <path id="path22" d="M3416.945,2250.5a10.985,10.985,0,0,1-17.778,8.644,11.021,11.021,0,0,0,0-17.289,10.985,10.985,0,0,1,17.778,8.644Z" transform="translate(-3381.359 -2239.502)" fill="#f79e1b"/>
      </g>
    </g>
  </g>
</svg>
