<svg id="g5088" xmlns="http://www.w3.org/2000/svg" width="52.428" height="16.182" viewBox="0 0 52.428 16.182">
  <path id="polygon10" d="M31.018,16.13,33.694.454h4.279L35.3,16.13Z" transform="translate(-12.571 -0.181)" fill="#fff"/>
  <path id="path12" d="M55.449.658A11.054,11.054,0,0,0,51.614,0c-4.228,0-7.207,2.126-7.232,5.173-.024,2.252,2.126,3.509,3.75,4.259,1.666.768,2.226,1.258,2.218,1.945-.01,1.05-1.33,1.531-2.56,1.531a8.985,8.985,0,0,1-4.028-.823l-.551-.25-.6,3.509a13.563,13.563,0,0,0,4.767.837c4.5,0,7.419-2.1,7.452-5.356.016-1.784-1.124-3.14-3.593-4.259-1.5-.726-2.412-1.209-2.4-1.943,0-.652.775-1.348,2.451-1.348a7.9,7.9,0,0,1,3.2.6l.384.181.58-3.4Z" transform="translate(-17.304 0)" fill="#fff"/>
  <path id="path14" d="M74.354.478H71.047a2.13,2.13,0,0,0-2.241,1.3L62.45,16.144h4.494s.735-1.931.9-2.355l5.48.007c.128.549.521,2.349.521,2.349h3.971L74.354.478m-5.277,10.1c.354-.9,1.7-4.382,1.7-4.382-.025.041.351-.908.567-1.5l.29,1.351s.819,3.742.99,4.527H69.077Z" transform="translate(-25.389 -0.191)" fill="#fff"/>
  <path id="path16" d="M18.007.473l-4.19,10.69-.446-2.172A12.239,12.239,0,0,0,7.444,2.415l3.831,13.709,4.528-.005L22.54.473H18.007Z" transform="translate(-2.975 -0.189)" fill="#fff"/>
  <path id="path18" d="M6.955.457H.055L0,.784C5.368,2.083,8.921,5.224,10.4,9l-1.5-7.215A1.792,1.792,0,0,0,6.955.457Z" transform="translate(0 -0.183)" fill="#ef9b11"/>
</svg>
