<svg xmlns="http://www.w3.org/2000/svg" width="36.686" height="22.739" viewBox="0 0 36.686 22.739">
  <g id="Group_2951" data-name="Group 2951" transform="translate(-36.682 -37.144)">
    <path id="Path_1740" data-name="Path 1740" d="M73.366,162.293v-.543q0-.118-.147-.118h-.343q-.161,0-.2-.06a.643.643,0,0,1-.035-.27v-2.041h.573a.134.134,0,0,0,.1-.042.137.137,0,0,0,.042-.1v-.573a.137.137,0,0,0-.042-.1.134.134,0,0,0-.1-.042h-.573v-.743a.113.113,0,0,0-.035-.088.129.129,0,0,0-.09-.031H72.5l-.848.147a.241.241,0,0,0-.1.049.114.114,0,0,0-.042.091v.575h-.559a.156.156,0,0,0-.147.147v.463a.119.119,0,0,0,.045.095.246.246,0,0,0,.1.053l.559.091v2.034a2.006,2.006,0,0,0,.076.607.837.837,0,0,0,.222.368.757.757,0,0,0,.365.179,2.5,2.5,0,0,0,.5.046,2.4,2.4,0,0,0,.273-.014q.119-.014.28-.042c.088-.014.133-.06.133-.139m-3.013-.072V161.6a.107.107,0,0,0-.038-.088.143.143,0,0,0-.094-.032h-.014q-.2.021-.374.035t-.479.014a.64.64,0,0,1-.224-.039.417.417,0,0,1-.182-.133.706.706,0,0,1-.122-.252,1.421,1.421,0,0,1-.045-.389v-.589a1.419,1.419,0,0,1,.045-.389.707.707,0,0,1,.122-.253.42.42,0,0,1,.182-.133.644.644,0,0,1,.224-.039q.3,0,.479.014t.374.035h.014a.144.144,0,0,0,.094-.031.107.107,0,0,0,.038-.088v-.624a.141.141,0,0,0-.035-.109.278.278,0,0,0-.112-.053q-.147-.035-.381-.07a3.768,3.768,0,0,0-.549-.035,1.578,1.578,0,0,0-1.185.456,1.814,1.814,0,0,0-.444,1.318v.589a1.813,1.813,0,0,0,.444,1.318,1.577,1.577,0,0,0,1.185.456,3.762,3.762,0,0,0,.549-.035q.234-.035.381-.07a.276.276,0,0,0,.112-.053.141.141,0,0,0,.035-.109m-4.551-.743a1.844,1.844,0,0,1-.269.109.992.992,0,0,1-.3.046.679.679,0,0,1-.332-.063q-.108-.063-.108-.287v-.063a.817.817,0,0,1,.028-.224.334.334,0,0,1,.1-.161.45.45,0,0,1,.189-.095,1.2,1.2,0,0,1,.3-.031h.4Zm1.111-1.7a1.666,1.666,0,0,0-.115-.656,1.139,1.139,0,0,0-.325-.442,1.341,1.341,0,0,0-.514-.252,2.66,2.66,0,0,0-.682-.081,4.666,4.666,0,0,0-.681.049q-.332.049-.528.1a.152.152,0,0,0-.133.154v.568a.119.119,0,0,0,.035.1.14.14,0,0,0,.091.028H64.1l.21-.017q.126-.01.283-.018t.329-.01q.171,0,.339,0a.7.7,0,0,1,.385.091q.14.091.14.393v.253H65.4a2.347,2.347,0,0,0-1.311.284,1.02,1.02,0,0,0-.409.9v.063a1.433,1.433,0,0,0,.1.575.993.993,0,0,0,.269.372,1.01,1.01,0,0,0,.381.2,1.639,1.639,0,0,0,.444.06,1.562,1.562,0,0,0,.542-.084,1.788,1.788,0,0,0,.43-.231v.112a.144.144,0,0,0,.14.14h.783a.144.144,0,0,0,.14-.14Zm-3.733,2.512v-.543q0-.118-.147-.118h-.343q-.161,0-.2-.06a.643.643,0,0,1-.035-.27v-2.041h.573a.134.134,0,0,0,.1-.042.136.136,0,0,0,.042-.1v-.573a.137.137,0,0,0-.042-.1.134.134,0,0,0-.1-.042h-.573v-.743a.113.113,0,0,0-.035-.088.13.13,0,0,0-.09-.031h-.021l-.848.147a.242.242,0,0,0-.1.049.114.114,0,0,0-.042.091v.575h-.559a.156.156,0,0,0-.147.147v.463a.119.119,0,0,0,.045.095.246.246,0,0,0,.1.053l.559.091v2.034a2.005,2.005,0,0,0,.076.607.837.837,0,0,0,.222.368.758.758,0,0,0,.365.179,2.5,2.5,0,0,0,.5.046,2.4,2.4,0,0,0,.273-.014q.119-.014.28-.042c.089-.014.133-.06.133-.139m-3.048-.016v-2.335a3.51,3.51,0,0,0-.052-.62,1.389,1.389,0,0,0-.189-.505.97.97,0,0,0-.377-.34,1.33,1.33,0,0,0-.619-.126,1.758,1.758,0,0,0-1.139.367v-.17a.136.136,0,0,0-.042-.1.133.133,0,0,0-.1-.043h-.783a.134.134,0,0,0-.1.042.135.135,0,0,0-.042.1v3.731a.156.156,0,0,0,.147.147h.846a.13.13,0,0,0,.1-.045.146.146,0,0,0,.042-.1v-2.757a3.149,3.149,0,0,1,.342-.161.858.858,0,0,1,.315-.063.9.9,0,0,1,.262.032.3.3,0,0,1,.157.108.474.474,0,0,1,.077.2,1.922,1.922,0,0,1,.021.308v2.33a.146.146,0,0,0,.042.1.129.129,0,0,0,.1.045h.846a.156.156,0,0,0,.147-.147m-5.292-1.613q0,.863-.619.863a.542.542,0,0,1-.466-.217,1.082,1.082,0,0,1-.16-.645v-.491a1.066,1.066,0,0,1,.16-.642.545.545,0,0,1,.466-.214q.619,0,.619.856Zm1.132-.491a2.323,2.323,0,0,0-.116-.757,1.565,1.565,0,0,0-.336-.572,1.5,1.5,0,0,0-.546-.365,2.25,2.25,0,0,0-1.506,0,1.487,1.487,0,0,0-.889.936,2.318,2.318,0,0,0-.116.757v.491a2.319,2.319,0,0,0,.116.757,1.487,1.487,0,0,0,.889.936,2.25,2.25,0,0,0,1.506,0,1.5,1.5,0,0,0,.546-.365,1.565,1.565,0,0,0,.336-.572,2.323,2.323,0,0,0,.116-.757Zm-3.88,2.048V161.6a.107.107,0,0,0-.038-.088.144.144,0,0,0-.094-.032h-.014q-.2.021-.374.035t-.479.014a.641.641,0,0,1-.224-.039.417.417,0,0,1-.182-.133.706.706,0,0,1-.122-.252,1.426,1.426,0,0,1-.045-.389v-.589a1.424,1.424,0,0,1,.045-.389.707.707,0,0,1,.122-.253.419.419,0,0,1,.182-.133.645.645,0,0,1,.224-.039q.3,0,.479.014t.374.035h.014a.144.144,0,0,0,.094-.031.107.107,0,0,0,.038-.088v-.624a.142.142,0,0,0-.035-.109.279.279,0,0,0-.112-.053q-.147-.035-.381-.07a3.77,3.77,0,0,0-.549-.035,1.578,1.578,0,0,0-1.185.456,1.814,1.814,0,0,0-.444,1.318v.589a1.813,1.813,0,0,0,.444,1.318,1.577,1.577,0,0,0,1.185.456,3.764,3.764,0,0,0,.549-.035q.234-.035.381-.07a.277.277,0,0,0,.112-.053.141.141,0,0,0,.035-.109m-3.439.056v-2.335a3.5,3.5,0,0,0-.052-.62,1.389,1.389,0,0,0-.189-.505.97.97,0,0,0-.378-.34,1.33,1.33,0,0,0-.619-.126,1.758,1.758,0,0,0-1.139.367v-.17a.137.137,0,0,0-.042-.1.134.134,0,0,0-.1-.043h-.783a.133.133,0,0,0-.1.042.135.135,0,0,0-.042.1v3.731a.156.156,0,0,0,.147.147h.846a.129.129,0,0,0,.1-.045.146.146,0,0,0,.042-.1v-2.757a3.151,3.151,0,0,1,.343-.161.857.857,0,0,1,.315-.063.9.9,0,0,1,.262.032.3.3,0,0,1,.157.108.473.473,0,0,1,.077.2,1.919,1.919,0,0,1,.021.308v2.33a.146.146,0,0,0,.042.1.129.129,0,0,0,.1.045h.846a.156.156,0,0,0,.147-.147m-5.389-.8a1.844,1.844,0,0,1-.269.109.992.992,0,0,1-.3.046.679.679,0,0,1-.332-.063q-.108-.063-.108-.287v-.063a.818.818,0,0,1,.028-.224.336.336,0,0,1,.1-.161.45.45,0,0,1,.189-.095,1.2,1.2,0,0,1,.3-.031h.4v.771Zm1.111-1.7a1.667,1.667,0,0,0-.115-.656,1.138,1.138,0,0,0-.325-.442,1.341,1.341,0,0,0-.514-.252,2.66,2.66,0,0,0-.681-.081,4.666,4.666,0,0,0-.681.049q-.332.049-.528.1a.152.152,0,0,0-.133.154v.568a.119.119,0,0,0,.035.1.14.14,0,0,0,.091.028h.035l.21-.017q.126-.01.283-.018t.328-.01q.171,0,.339,0a.7.7,0,0,1,.384.091q.14.091.14.393v.253h-.377a2.347,2.347,0,0,0-1.311.284,1.02,1.02,0,0,0-.409.9v.063a1.435,1.435,0,0,0,.1.575.993.993,0,0,0,.269.372,1.01,1.01,0,0,0,.381.2,1.64,1.64,0,0,0,.444.06,1.562,1.562,0,0,0,.542-.084,1.788,1.788,0,0,0,.43-.231v.112a.144.144,0,0,0,.14.14h.783a.144.144,0,0,0,.14-.14Zm-4.991,1.108a.545.545,0,0,1-.206.456,1.256,1.256,0,0,1-.744.161H38.32q-.081,0-.168,0c-.058,0-.114,0-.168,0h-.122v-1.311h.783a.742.742,0,0,1,.58.186.649.649,0,0,1,.161.438Zm-.028-2.09a.651.651,0,0,1-.035.214.421.421,0,0,1-.115.175.6.6,0,0,1-.217.119,1.108,1.108,0,0,1-.346.046h-.783V158.14l.108,0q.073,0,.154,0h.269a1.483,1.483,0,0,1,.751.137.468.468,0,0,1,.213.424Zm1.188,2.013a1.143,1.143,0,0,0-.171-.631,1.13,1.13,0,0,0-.451-.407,1,1,0,0,0,.433-.414,1.237,1.237,0,0,0,.154-.617v-.126a1.394,1.394,0,0,0-.161-.7,1.207,1.207,0,0,0-.451-.449,2.142,2.142,0,0,0-.7-.242,5.069,5.069,0,0,0-.9-.074q-.168,0-.349.007t-.353.017q-.171.01-.315.025t-.234.028a.5.5,0,0,0-.287.126.492.492,0,0,0-.084.33v4.264a.476.476,0,0,0,.087.329.526.526,0,0,0,.3.126q.1.021.252.035t.318.024q.171.01.353.018t.356.007a4.984,4.984,0,0,0,.856-.07,2.012,2.012,0,0,0,.7-.249,1.321,1.321,0,0,0,.472-.484,1.529,1.529,0,0,0,.175-.768Z" transform="translate(0 -102.604)" fill="#fff"/>
    <g id="Group_2944" data-name="Group 2944" transform="translate(36.681 37.144)">
      <path id="Path_1741" data-name="Path 1741" d="M68.773,64.475H58.293l-6.47,7.393h-11.8l3.4-3.818H38.4a1.745,1.745,0,0,0-1.715,1.764h0v3.723A1.745,1.745,0,0,0,38.4,75.3h19.18a4.355,4.355,0,0,0,2.862-1.311l2.989-3.412Z" transform="translate(-36.681 -60.495)" fill="#fff"/>
      <path id="Path_1742" data-name="Path 1742" d="M98.6,37.144H79.473a4.374,4.374,0,0,0-2.866,1.307l-8.389,9.52H78.447L84.979,40.6H96.934l-3.315,3.8H98.6a1.745,1.745,0,0,0,1.715-1.765V38.909A1.745,1.745,0,0,0,98.6,37.144Z" transform="translate(-63.626 -37.144)" fill="#fff"/>
    </g>
  </g>
</svg>
