<svg id="layer1" xmlns="http://www.w3.org/2000/svg" width="51.771" height="15.979" viewBox="0 0 51.771 15.979">
  <path id="path66" d="M-63.667,287.231a4.729,4.729,0,0,0-2.04.471,6.4,6.4,0,0,0-2.438,2.148,9.353,9.353,0,0,0-1.119,2.185c-.56,1.547-.554,2.8.019,3.629a2.678,2.678,0,0,0,2.371,1.028h.005c2.5,0,4.364-1.653,5.546-4.912.312-.862.724-2.472-.029-3.558A2.626,2.626,0,0,0-63.667,287.231Zm15.078,0a4.727,4.727,0,0,0-2.039.471,6.393,6.393,0,0,0-2.438,2.148,9.334,9.334,0,0,0-1.119,2.185c-.56,1.547-.554,2.8.019,3.629a2.676,2.676,0,0,0,2.371,1.028h0c2.5,0,4.365-1.653,5.546-4.912.313-.862.724-2.472-.028-3.558A2.628,2.628,0,0,0-48.589,287.231Zm-23.1.131a5,5,0,0,0-2.337.366,4.048,4.048,0,0,0-1.834,2.567,2.927,2.927,0,0,0-.168.823,1.24,1.24,0,0,0,.122.612,1.775,1.775,0,0,0,.509.583,2.491,2.491,0,0,0,.774.395l.344.1c.182.053.394.116.529.157a1.063,1.063,0,0,1,.244.1.491.491,0,0,1,.194.2.44.44,0,0,1,.046.19.624.624,0,0,1-.036.22.6.6,0,0,1-.361.406,2.625,2.625,0,0,1-.905.107H-79.94l-.848,2.352h5.745a6.206,6.206,0,0,0,2.479-.407,3.832,3.832,0,0,0,2.246-2.849,1.952,1.952,0,0,0-.137-1.5,2.123,2.123,0,0,0-1.3-.857l-.306-.089-.452-.131a.607.607,0,0,1-.357-.26.514.514,0,0,1-.053-.412.6.6,0,0,1,.3-.361,1.2,1.2,0,0,1,.581-.131h3.34c.023-.034.045-.072.068-.106a7.4,7.4,0,0,1,2.157-2.073Zm15.01,0a3.128,3.128,0,0,0-3.115,2.178l-2.525,7h2.766l1.3-3.6,2.444,0,.7-1.927-2.436,0,.392-1.116a.583.583,0,0,1,.563-.359h2.882c.024-.035.045-.072.069-.106a7.8,7.8,0,0,1,2.282-2.073Zm12.83.005-3.312,9.177h2.813l1.2-3.23c.059.133.769,3.23.769,3.23h2.958a28.811,28.811,0,0,0-.933-3.2,5.056,5.056,0,0,0-.35-.723,4.16,4.16,0,0,0,2.547-2.348,2.145,2.145,0,0,0-.052-2.011c-.415-.6-1.259-.9-2.582-.9Zm5.77,0a2.288,2.288,0,0,1,.459.49,2.4,2.4,0,0,1,.378,1.69h1.675l-2.525,7h2.522l2.526-7H-29.8l.786-2.179ZM-42,289.262h.464c.849,0,1.166.251.878,1.033a1.624,1.624,0,0,1-1.678,1.187h-.481l.816-2.22Zm-22.332.046h0c.864,0,1.062.506.3,2.6h0c-.78,2.153-1.345,2.694-2.2,2.694h0c-.83,0-1.121-.53-.344-2.673.58-1.6,1.331-2.622,2.239-2.622Zm15.078,0h0c.864,0,1.062.506.3,2.6-.779,2.153-1.345,2.694-2.2,2.694h0c-.83,0-1.12-.53-.344-2.673.579-1.6,1.331-2.622,2.239-2.622Z" transform="translate(80.788 -287.231)" fill="#ee7f00"/>
  <path id="path98" d="M-78.055,446.122a.681.681,0,0,0-.4.1.726.726,0,0,0-.222.347c-.058.16-.067.271-.027.334s.149.1.328.1a.661.661,0,0,0,.4-.1.727.727,0,0,0,.22-.345c.058-.162.068-.274.029-.336S-77.873,446.122-78.055,446.122Zm1.524,0a.677.677,0,0,0-.4.1.729.729,0,0,0-.221.347c-.057.16-.067.271-.028.334s.148.1.327.1a.67.67,0,0,0,.4-.1.725.725,0,0,0,.222-.345c.058-.162.067-.274.027-.336S-76.352,446.122-76.53,446.122Zm28.455,1.194a2.418,2.418,0,0,0-.617.081,2.081,2.081,0,0,0-.57.245,2.016,2.016,0,0,0-.473.412,1.871,1.871,0,0,0-.328.576,1.287,1.287,0,0,0-.093.49.817.817,0,0,0,.09.354.826.826,0,0,0,.213.257,1.941,1.941,0,0,0,.283.192c.1.056.2.111.3.161a1.375,1.375,0,0,1,.246.162.487.487,0,0,1,.147.2.373.373,0,0,1-.012.266.836.836,0,0,1-.137.243.82.82,0,0,1-.207.183,1,1,0,0,1-.266.115,1.186,1.186,0,0,1-.314.041,1.343,1.343,0,0,1-.427-.058,1.4,1.4,0,0,1-.287-.128,1.433,1.433,0,0,1-.181-.129.2.2,0,0,0-.118-.058.132.132,0,0,0-.068.019.215.215,0,0,0-.065.065.754.754,0,0,0-.066.12c-.022.049-.047.111-.073.183a1.338,1.338,0,0,0-.07.248.2.2,0,0,0,.017.132.422.422,0,0,0,.11.106,1.012,1.012,0,0,0,.215.114,1.857,1.857,0,0,0,.32.093,2.085,2.085,0,0,0,.421.038,2.606,2.606,0,0,0,.682-.091,2.354,2.354,0,0,0,.628-.273,2.2,2.2,0,0,0,.522-.452,2.028,2.028,0,0,0,.36-.63,1.245,1.245,0,0,0,.088-.477.815.815,0,0,0-.093-.352.842.842,0,0,0-.218-.257,2.2,2.2,0,0,0-.287-.192c-.1-.056-.2-.109-.3-.16a1.482,1.482,0,0,1-.253-.162.467.467,0,0,1-.149-.2.377.377,0,0,1,.013-.263.724.724,0,0,1,.107-.194.662.662,0,0,1,.167-.156.836.836,0,0,1,.223-.1.965.965,0,0,1,.275-.037,1.056,1.056,0,0,1,.335.047,1.277,1.277,0,0,1,.244.106,1.572,1.572,0,0,1,.167.107.2.2,0,0,0,.1.049.116.116,0,0,0,.069-.021.23.23,0,0,0,.059-.067,1.021,1.021,0,0,0,.059-.116c.02-.046.043-.1.068-.172s.039-.113.051-.153a.713.713,0,0,0,.025-.1.264.264,0,0,0,0-.065.169.169,0,0,0-.026-.06.351.351,0,0,0-.111-.088,1.171,1.171,0,0,0-.214-.1,1.725,1.725,0,0,0-.275-.066,1.9,1.9,0,0,0-.312-.025Zm14.484,0a3.206,3.206,0,0,0-1.027.166,3.261,3.261,0,0,0-.914.477,3.592,3.592,0,0,0-.747.757,3.965,3.965,0,0,0-.53,1.006,2.835,2.835,0,0,0-.192.97,1.337,1.337,0,0,0,.191.726,1.188,1.188,0,0,0,.561.454,2.343,2.343,0,0,0,.911.156q.185,0,.375-.017t.382-.053c.129-.024.254-.052.378-.085s.228-.064.315-.095a.441.441,0,0,0,.2-.125.62.62,0,0,0,.1-.185l.654-1.813a.423.423,0,0,0,.027-.125.186.186,0,0,0-.017-.093.127.127,0,0,0-.056-.058.194.194,0,0,0-.092-.02H-34.6a.117.117,0,0,0-.063.02.253.253,0,0,0-.064.06.6.6,0,0,0-.065.107,1.59,1.59,0,0,0-.068.165.766.766,0,0,0-.063.27c0,.053.028.079.069.079H-34l-.381,1.056a1.568,1.568,0,0,1-.317.106,1.507,1.507,0,0,1-.316.035,1.286,1.286,0,0,1-.537-.1.71.71,0,0,1-.335-.3.976.976,0,0,1-.109-.5,2.17,2.17,0,0,1,.145-.689,2.718,2.718,0,0,1,.336-.65,2.417,2.417,0,0,1,.47-.5,2.106,2.106,0,0,1,.571-.324,1.809,1.809,0,0,1,.634-.114,1.81,1.81,0,0,1,.516.063,2.076,2.076,0,0,1,.35.137,1.4,1.4,0,0,1,.219.137.228.228,0,0,0,.124.063.116.116,0,0,0,.06-.017.232.232,0,0,0,.061-.062.811.811,0,0,0,.066-.118,1.725,1.725,0,0,0,.072-.176,1.361,1.361,0,0,0,.075-.266.216.216,0,0,0-.017-.139.45.45,0,0,0-.124-.116,1.1,1.1,0,0,0-.254-.125,2.27,2.27,0,0,0-.384-.1A2.931,2.931,0,0,0-33.592,447.319Zm-28.513.056c-.119,0-.212,0-.281.01a.338.338,0,0,0-.16.047.2.2,0,0,0-.08.111,1.132,1.132,0,0,0-.037.2l-.408,3.975a.39.39,0,0,0,0,.136.119.119,0,0,0,.073.077.575.575,0,0,0,.177.035c.078.006.185.008.319.008s.232,0,.312-.008a.754.754,0,0,0,.2-.037.33.33,0,0,0,.128-.079.668.668,0,0,0,.1-.132l1.725-2.887h.007l-.319,2.887a.345.345,0,0,0,0,.136.117.117,0,0,0,.073.077.574.574,0,0,0,.177.035c.078.006.184.008.316.008s.217,0,.3-.008a.894.894,0,0,0,.2-.035.361.361,0,0,0,.138-.077.6.6,0,0,0,.107-.136l2.465-3.964a1.956,1.956,0,0,0,.111-.206.126.126,0,0,0,.008-.115.136.136,0,0,0-.106-.047,2.211,2.211,0,0,0-.236-.01q-.164,0-.258.01a.551.551,0,0,0-.151.032.21.21,0,0,0-.089.063.7.7,0,0,0-.063.1l-2.046,3.479h-.007l.4-3.465a.333.333,0,0,0,0-.113.1.1,0,0,0-.055-.065.4.4,0,0,0-.142-.03c-.065,0-.153-.007-.264-.007s-.19,0-.254.01a.627.627,0,0,0-.16.032.244.244,0,0,0-.1.065.674.674,0,0,0-.076.109l-2.072,3.465h0l.466-3.489a.333.333,0,0,0,.009-.1.069.069,0,0,0-.046-.056.4.4,0,0,0-.136-.025c-.063,0-.149-.006-.258-.006Zm10.884,0a2.02,2.02,0,0,0-.224.011.985.985,0,0,0-.151.028.246.246,0,0,0-.093.046.159.159,0,0,0-.046.063l-1.551,4.3a.082.082,0,0,0,0,.064.094.094,0,0,0,.058.045.565.565,0,0,0,.131.028,1.853,1.853,0,0,0,.217.011,2.072,2.072,0,0,0,.227-.011.823.823,0,0,0,.149-.028.259.259,0,0,0,.092-.045.154.154,0,0,0,.045-.064l1.551-4.3a.08.08,0,0,0,0-.063.1.1,0,0,0-.059-.046.6.6,0,0,0-.129-.028,1.861,1.861,0,0,0-.22-.011Zm-27.9,0a2.083,2.083,0,0,0-.227.011.993.993,0,0,0-.151.028.225.225,0,0,0-.091.046.157.157,0,0,0-.044.063l-1,2.771a2.174,2.174,0,0,0-.151.762.948.948,0,0,0,.162.544.915.915,0,0,0,.455.326,2.155,2.155,0,0,0,.725.107,2.889,2.889,0,0,0,.845-.12,2.429,2.429,0,0,0,.711-.348,2.452,2.452,0,0,0,.561-.56,2.964,2.964,0,0,0,.393-.75l.985-2.732a.086.086,0,0,0,0-.063.086.086,0,0,0-.056-.046.6.6,0,0,0-.128-.028,1.778,1.778,0,0,0-.214-.011,2.089,2.089,0,0,0-.225.011.957.957,0,0,0-.151.028.228.228,0,0,0-.09.046.156.156,0,0,0-.044.063l-.989,2.743a1.831,1.831,0,0,1-.219.428,1.46,1.46,0,0,1-.3.316,1.247,1.247,0,0,1-.36.2,1.263,1.263,0,0,1-.41.067.9.9,0,0,1-.363-.065.478.478,0,0,1-.226-.2.607.607,0,0,1-.071-.33,1.553,1.553,0,0,1,.1-.47l.97-2.69a.083.083,0,0,0,0-.063.1.1,0,0,0-.058-.046.614.614,0,0,0-.129-.028A1.83,1.83,0,0,0-79.124,447.375Zm33.839,0a2.087,2.087,0,0,0-.227.01.934.934,0,0,0-.151.028.245.245,0,0,0-.092.046.16.16,0,0,0-.044.064l-1,2.771a2.164,2.164,0,0,0-.151.762.943.943,0,0,0,.161.544.917.917,0,0,0,.455.326,2.154,2.154,0,0,0,.725.107,2.894,2.894,0,0,0,.845-.12,2.436,2.436,0,0,0,.711-.349,2.473,2.473,0,0,0,.561-.56,2.99,2.99,0,0,0,.393-.75l.985-2.732a.087.087,0,0,0,0-.064.091.091,0,0,0-.056-.046.576.576,0,0,0-.128-.028,1.785,1.785,0,0,0-.214-.01,2.1,2.1,0,0,0-.225.01.9.9,0,0,0-.151.028.238.238,0,0,0-.09.046.16.16,0,0,0-.044.064l-.989,2.743a1.849,1.849,0,0,1-.219.428,1.471,1.471,0,0,1-.3.316,1.231,1.231,0,0,1-.36.2,1.256,1.256,0,0,1-.411.067.906.906,0,0,1-.362-.065.479.479,0,0,1-.226-.2.6.6,0,0,1-.071-.33,1.536,1.536,0,0,1,.1-.47l.969-2.69a.081.081,0,0,0,0-.064.1.1,0,0,0-.058-.046.585.585,0,0,0-.129-.028A1.834,1.834,0,0,0-45.285,447.375Zm7.842.007c-.084,0-.153,0-.21.009a.576.576,0,0,0-.14.03.275.275,0,0,0-.087.049.156.156,0,0,0-.044.064l-.771,2.137q-.087.243-.178.51t-.169.514h0c-.008-.094-.017-.188-.028-.281s-.021-.19-.032-.287-.025-.195-.04-.292-.03-.2-.044-.3l-.279-1.665a1.312,1.312,0,0,0-.046-.23.362.362,0,0,0-.081-.146.3.3,0,0,0-.135-.077.827.827,0,0,0-.215-.023h-.492a.479.479,0,0,0-.265.083.479.479,0,0,0-.185.249l-1.476,4.095a.111.111,0,0,0-.006.064.083.083,0,0,0,.046.047.391.391,0,0,0,.115.031,1.539,1.539,0,0,0,.2.01,1.8,1.8,0,0,0,.21-.01.666.666,0,0,0,.138-.031.244.244,0,0,0,.084-.047.176.176,0,0,0,.041-.064l.86-2.384c.064-.178.125-.352.18-.519s.11-.336.162-.505h.007c0,.138.013.281.027.428s.031.283.051.41l.355,2.13a2.543,2.543,0,0,0,.053.287.5.5,0,0,0,.081.176.263.263,0,0,0,.131.09.69.69,0,0,0,.2.025h.39a.522.522,0,0,0,.138-.019.449.449,0,0,0,.134-.062.545.545,0,0,0,.113-.105.5.5,0,0,0,.08-.145l1.477-4.095a.106.106,0,0,0,.005-.064.085.085,0,0,0-.043-.049.3.3,0,0,0-.113-.03,1.8,1.8,0,0,0-.2-.009Zm-32.564.014a.39.39,0,0,0-.219.068.438.438,0,0,0-.159.224l-1.432,3.972c-.037.1-.038.178,0,.224a.2.2,0,0,0,.168.069h2.267a.128.128,0,0,0,.065-.02.231.231,0,0,0,.065-.061.655.655,0,0,0,.067-.111c.022-.046.045-.1.07-.171s.042-.125.053-.171a.424.424,0,0,0,.014-.112.092.092,0,0,0-.021-.062.071.071,0,0,0-.051-.019h-1.625l.463-1.285h1.364a.132.132,0,0,0,.064-.018.219.219,0,0,0,.064-.058.563.563,0,0,0,.065-.107,1.608,1.608,0,0,0,.07-.169,1.442,1.442,0,0,0,.052-.167.366.366,0,0,0,.013-.109.089.089,0,0,0-.022-.06.069.069,0,0,0-.051-.019h-1.363l.4-1.112h1.612a.117.117,0,0,0,.063-.019.255.255,0,0,0,.064-.062.635.635,0,0,0,.066-.111,1.65,1.65,0,0,0,.069-.167,1.584,1.584,0,0,0,.054-.174.455.455,0,0,0,.015-.113.088.088,0,0,0-.02-.061.067.067,0,0,0-.049-.018Zm3.785,0a.388.388,0,0,0-.218.068.435.435,0,0,0-.159.224l-1.491,4.138a.089.089,0,0,0,0,.063.089.089,0,0,0,.057.046.572.572,0,0,0,.131.028,1.862,1.862,0,0,0,.217.01,2.08,2.08,0,0,0,.227-.01.864.864,0,0,0,.15-.028.247.247,0,0,0,.092-.046.15.15,0,0,0,.045-.063l.626-1.736h.286a.55.55,0,0,1,.241.046.34.34,0,0,1,.148.135.641.641,0,0,1,.074.224c.015.089.025.191.033.306l.038,1.017a.212.212,0,0,0,.008.072.092.092,0,0,0,.054.05.4.4,0,0,0,.128.026c.057,0,.134.007.232.007.116,0,.209,0,.278-.007a.781.781,0,0,0,.162-.024.182.182,0,0,0,.082-.044.2.2,0,0,0,.038-.065.386.386,0,0,0,.017-.1c0-.041,0-.106,0-.2l-.057-.9a2.231,2.231,0,0,0-.031-.291,1.075,1.075,0,0,0-.066-.229.587.587,0,0,0-.106-.17.592.592,0,0,0-.147-.12,2.213,2.213,0,0,0,.437-.176,1.862,1.862,0,0,0,.368-.257,1.755,1.755,0,0,0,.291-.336,1.939,1.939,0,0,0,.208-.417,1.365,1.365,0,0,0,.093-.481.7.7,0,0,0-.1-.362.7.7,0,0,0-.281-.248,1.4,1.4,0,0,0-.442-.134c-.06-.007-.127-.013-.2-.017s-.172-.007-.29-.007h-1.169Zm11.02,0a.388.388,0,0,0-.219.068.435.435,0,0,0-.159.224l-1.432,3.972c-.037.1-.038.178,0,.224a.2.2,0,0,0,.169.069h2.267a.125.125,0,0,0,.065-.02.218.218,0,0,0,.065-.061.566.566,0,0,0,.067-.111,1.733,1.733,0,0,0,.07-.171h0a1.692,1.692,0,0,0,.053-.171.422.422,0,0,0,.013-.112.09.09,0,0,0-.021-.062.071.071,0,0,0-.051-.019h-1.625l.463-1.285h1.364a.13.13,0,0,0,.064-.018.214.214,0,0,0,.065-.058.591.591,0,0,0,.065-.107,1.729,1.729,0,0,0,.07-.169,1.532,1.532,0,0,0,.051-.167.37.37,0,0,0,.014-.109.091.091,0,0,0-.022-.06.07.07,0,0,0-.051-.019h-1.364l.4-1.112h1.611a.121.121,0,0,0,.064-.019.254.254,0,0,0,.064-.062.577.577,0,0,0,.066-.111,1.525,1.525,0,0,0,.07-.167,1.565,1.565,0,0,0,.054-.174.432.432,0,0,0,.015-.113.088.088,0,0,0-.02-.061.068.068,0,0,0-.05-.018H-55.2Zm-19.133,0a.388.388,0,0,0-.219.068.434.434,0,0,0-.159.224l-1.432,3.972c-.037.1-.038.177,0,.223a.2.2,0,0,0,.169.069h1.2a3.52,3.52,0,0,0,.505-.034,2.773,2.773,0,0,0,.454-.1,2.456,2.456,0,0,0,.422-.179,2.017,2.017,0,0,0,.373-.26,1.98,1.98,0,0,0,.309-.349,1.876,1.876,0,0,0,.225-.44,1.207,1.207,0,0,0,.081-.419.739.739,0,0,0-.073-.325.6.6,0,0,0-.2-.227.831.831,0,0,0-.309-.123,1.543,1.543,0,0,0,.32-.148,1.568,1.568,0,0,0,.273-.211,1.542,1.542,0,0,0,.217-.266,1.532,1.532,0,0,0,.154-.312,1.14,1.14,0,0,0,.081-.514.585.585,0,0,0-.172-.361.9.9,0,0,0-.408-.213,2.687,2.687,0,0,0-.677-.07Zm.378.693h.464a1.057,1.057,0,0,1,.326.039.36.36,0,0,1,.171.111.29.29,0,0,1,.06.181.692.692,0,0,1-.046.246.986.986,0,0,1-.123.234.9.9,0,0,1-.187.194.866.866,0,0,1-.244.13,1.023,1.023,0,0,1-.335.048h-.512Zm8.125.014h.411a2.133,2.133,0,0,1,.243.011,1.119,1.119,0,0,1,.148.027.34.34,0,0,1,.253.219.622.622,0,0,1-.036.38.987.987,0,0,1-.145.268.92.92,0,0,1-.221.206,1.059,1.059,0,0,1-.293.134,1.283,1.283,0,0,1-.359.047H-66.3Zm-8.8,1.846h.544a1.318,1.318,0,0,1,.392.046.454.454,0,0,1,.212.13.352.352,0,0,1,.077.209.715.715,0,0,1-.049.283.9.9,0,0,1-.151.27.949.949,0,0,1-.222.2,1,1,0,0,1-.27.12,1.246,1.246,0,0,1-.336.04h-.663Z" transform="translate(80.788 -436.055)" fill="#fff"/>
</svg>
