<svg xmlns="http://www.w3.org/2000/svg" xmlns:xlink="http://www.w3.org/1999/xlink" width="55.348" height="24.24" viewBox="0 0 55.348 24.24">
  <defs>
    <linearGradient id="linear-gradient" x1="0.001" y1="0.741" x2="0.997" y2="0.248" gradientUnits="objectBoundingBox">
      <stop offset="0" stop-color="#af1e45"/>
      <stop offset="0.02" stop-color="#af1e45"/>
      <stop offset="0.152" stop-color="#af1e45"/>
      <stop offset="0.205" stop-color="#bc213e"/>
      <stop offset="0.275" stop-color="#c92535"/>
      <stop offset="0.357" stop-color="#d3272f"/>
      <stop offset="0.459" stop-color="#db292a"/>
      <stop offset="0.603" stop-color="#e02a28"/>
      <stop offset="1" stop-color="#e12a27"/>
    </linearGradient>
  </defs>
  <g id="Group_2953" data-name="Group 2953" transform="translate(-29.5 -62)">
    <path id="Path_1757" data-name="Path 1757" d="M39.584,62.065l-9.552,5.211,10.591,6.16a.394.394,0,0,1,.208.286v9.084a.3.3,0,0,1-.13.221l-.637.351a.416.416,0,0,1-.39-.013l-.559-.312a.328.328,0,0,1-.156-.273V74.736c0-.143-.156-.208-.26-.273l-9.2-5.354V79.856a.907.907,0,0,0,.416.624l9.565,5.64c.312.182.494.156.91-.065l9.448-5.575a.816.816,0,0,0,.429-.637V69.122l-6.342,3.7a.331.331,0,0,1-.312.013l-.572-.338a.413.413,0,0,1-.221-.338l-.013-.676a.357.357,0,0,1,.156-.286l6.784-3.951-9.552-5.2a.829.829,0,0,0-.611.013Z" fill-rule="evenodd" fill="url(#linear-gradient)"/>
    <g id="Group_2952" data-name="Group 2952" transform="translate(56.75 67.198)">
      <path id="Path_1758" data-name="Path 1758" d="M247.861,114.632V102H245.5v4.146a5.68,5.68,0,0,0-1.949-.286,4.392,4.392,0,0,0-4.353,4.5c.065,3.184,1.949,4.522,4.886,4.7a16.025,16.025,0,0,0,3.782-.429Zm-2.352-1.715a7.022,7.022,0,0,1-1.559.078c-1.559-.247-2.3-1.053-2.326-2.43a2.275,2.275,0,0,1,2.417-2.625,4.514,4.514,0,0,1,1.455.286l.013,4.691Z" transform="translate(-239.192 -102)" fill="#fff"/>
      <path id="Path_1759" data-name="Path 1759" d="M397.361,114.632V102H395v4.146a5.679,5.679,0,0,0-1.949-.286,4.392,4.392,0,0,0-4.353,4.5c.065,3.184,1.949,4.522,4.886,4.7a15.928,15.928,0,0,0,3.782-.429Zm-2.352-1.715a7.022,7.022,0,0,1-1.559.078c-1.559-.247-2.3-1.053-2.326-2.43a2.275,2.275,0,0,1,2.417-2.625,4.514,4.514,0,0,1,1.455.286l.013,4.691Z" transform="translate(-369.264 -102)" fill="#fff"/>
      <path id="Path_1760" data-name="Path 1760" d="M316.1,132.665V144.53h2.391l-.013-10.318a9.406,9.406,0,0,1,1.559-.143,2.2,2.2,0,0,1,2.326,2.365,2.474,2.474,0,0,1-.845,2.079,2.925,2.925,0,0,1-1.741.546v2.079a5.461,5.461,0,0,0,3.093-.767,4.711,4.711,0,0,0,1.91-3.925c-.078-2.807-1.663-4.418-4.886-4.483a10.07,10.07,0,0,0-3.795.7Z" transform="translate(-306.105 -128.065)" fill="#fff"/>
    </g>
  </g>
</svg>
