<svg id="PYL" xmlns="http://www.w3.org/2000/svg" width="58.656" height="14.483" viewBox="0 0 58.656 14.483">
  <path id="Path_1697" data-name="Path 1697" d="M40.751,6.749h-3.3A.459.459,0,0,0,37,7.136L35.663,15.6a.275.275,0,0,0,.272.318h1.576a.459.459,0,0,0,.453-.387l.36-2.283a.458.458,0,0,1,.453-.387h1.045a3.389,3.389,0,0,0,3.756-3.137,2.542,2.542,0,0,0-.421-2.131A3.062,3.062,0,0,0,40.751,6.749Zm.381,3.091c-.18,1.184-1.085,1.184-1.96,1.184h-.5l.349-2.212A.275.275,0,0,1,39.3,8.58h.228c.6,0,1.158,0,1.449.34A1.1,1.1,0,0,1,41.132,9.84Z" transform="translate(-18.779 -3.572)" fill="#fff"/>
  <path id="Path_1698" data-name="Path 1698" d="M58.639,12.916h-1.58a.275.275,0,0,0-.272.232l-.07.442-.111-.16a2.249,2.249,0,0,0-1.867-.663,3.634,3.634,0,0,0-3.528,3.178,2.983,2.983,0,0,0,.589,2.428,2.473,2.473,0,0,0,1.991.8,3.024,3.024,0,0,0,2.187-.9l-.07.439a.275.275,0,0,0,.271.318H57.6a.459.459,0,0,0,.453-.387l.854-5.409A.274.274,0,0,0,58.639,12.916Zm-2.2,3.076A1.761,1.761,0,0,1,54.653,17.5a1.224,1.224,0,0,1-1.309-1.536,1.769,1.769,0,0,1,1.771-1.521,1.333,1.333,0,0,1,1.054.43A1.368,1.368,0,0,1,56.436,15.991Z" transform="translate(-26.941 -6.686)" fill="#fff"/>
  <path id="Path_1699" data-name="Path 1699" d="M76.2,13.075H74.612a.46.46,0,0,0-.38.2L72.042,16.5l-.928-3.1a.46.46,0,0,0-.44-.327H69.113a.275.275,0,0,0-.261.364L70.6,18.572l-1.645,2.322a.275.275,0,0,0,.224.434h1.586a.458.458,0,0,0,.377-.2l5.282-7.624A.275.275,0,0,0,76.2,13.075Z" transform="translate(-36.246 -6.845)" fill="#fff"/>
  <path id="Path_1700" data-name="Path 1700" d="M89.532,6.749h-3.3a.458.458,0,0,0-.453.387L84.444,15.6a.275.275,0,0,0,.271.318h1.694a.321.321,0,0,0,.317-.271l.379-2.4a.458.458,0,0,1,.453-.387H88.6a3.39,3.39,0,0,0,3.757-3.137,2.54,2.54,0,0,0-.421-2.131A3.059,3.059,0,0,0,89.532,6.749Zm.381,3.091c-.18,1.184-1.085,1.184-1.96,1.184h-.5l.35-2.212a.274.274,0,0,1,.271-.232H88.3c.6,0,1.158,0,1.449.34A1.1,1.1,0,0,1,89.913,9.84Z" transform="translate(-44.467 -3.572)" fill="#fff"/>
  <path id="Path_1701" data-name="Path 1701" d="M107.421,12.916h-1.579a.274.274,0,0,0-.271.232l-.07.442-.111-.16a2.248,2.248,0,0,0-1.866-.663A3.634,3.634,0,0,0,100,15.945a2.985,2.985,0,0,0,.588,2.428,2.474,2.474,0,0,0,1.991.8,3.024,3.024,0,0,0,2.187-.9l-.07.439a.275.275,0,0,0,.272.318h1.423a.458.458,0,0,0,.453-.387l.855-5.409A.276.276,0,0,0,107.421,12.916Zm-2.2,3.076a1.761,1.761,0,0,1-1.783,1.509,1.224,1.224,0,0,1-1.309-1.536,1.77,1.77,0,0,1,1.771-1.521,1.333,1.333,0,0,1,1.054.43A1.361,1.361,0,0,1,105.218,15.991Z" transform="translate(-52.699 -6.686)" fill="#fff"/>
  <path id="Path_1702" data-name="Path 1702" d="M117.839,6.981,116.484,15.6a.275.275,0,0,0,.271.318h1.362a.458.458,0,0,0,.453-.387l1.336-8.462a.275.275,0,0,0-.271-.318H118.11A.276.276,0,0,0,117.839,6.981Z" transform="translate(-61.253 -3.571)" fill="#fff"/>
  <path id="Path_1703" data-name="Path 1703" d="M4.055,14.519l.252-1.594-.562-.013H1.061L2.927,1.153a.155.155,0,0,1,.052-.092.153.153,0,0,1,.1-.036H7.6a4.044,4.044,0,0,1,3.081.924,2.1,2.1,0,0,1,.494.92,3.3,3.3,0,0,1,0,1.268l-.006.037V4.5l.254.143a1.779,1.779,0,0,1,.514.39,1.809,1.809,0,0,1,.417.93A3.91,3.91,0,0,1,12.3,7.309a4.733,4.733,0,0,1-.556,1.527,3.148,3.148,0,0,1-.881.959,3.583,3.583,0,0,1-1.186.532A5.948,5.948,0,0,1,8.2,10.5H7.845a1.072,1.072,0,0,0-.689.252,1.059,1.059,0,0,0-.359.637l-.027.143-.446,2.809-.02.1a.089.089,0,0,1-.028.06.075.075,0,0,1-.046.017Z" transform="translate(-0.549 -0.53)" fill="#253b80"/>
  <path id="Path_1704" data-name="Path 1704" d="M14.324,7.667h0q-.02.13-.046.265c-.6,3.065-2.639,4.123-5.247,4.123H7.7a.645.645,0,0,0-.637.546h0l-.68,4.312-.193,1.222a.34.34,0,0,0,.335.393H8.883a.567.567,0,0,0,.56-.478l.023-.12.443-2.814.028-.154a.566.566,0,0,1,.56-.479h.352c2.282,0,4.068-.927,4.591-3.608a3.072,3.072,0,0,0-.472-2.713A2.252,2.252,0,0,0,14.324,7.667Z" transform="translate(-3.202 -4.047)" fill="#179bd7"/>
  <path id="Path_1705" data-name="Path 1705" d="M14.64,6.921q-.137-.04-.282-.072t-.3-.056a7.375,7.375,0,0,0-1.171-.085H9.341a.566.566,0,0,0-.559.479l-.755,4.78-.022.139a.645.645,0,0,1,.637-.546H9.97c2.608,0,4.65-1.059,5.247-4.123.018-.091.033-.179.046-.265a3.182,3.182,0,0,0-.491-.207Z" transform="translate(-4.142 -3.499)" fill="#222d65"/>
  <path id="Path_1706" data-name="Path 1706" d="M4.639,3.692a.561.561,0,0,1,.315-.42A.568.568,0,0,1,5.2,3.217H8.746A7.42,7.42,0,0,1,9.917,3.3q.153.024.3.056t.282.072l.134.041a3.241,3.241,0,0,1,.491.206,2.864,2.864,0,0,0-.614-2.586A4.515,4.515,0,0,0,7.056,0H2.53A.646.646,0,0,0,1.89.543L0,12.42a.387.387,0,0,0,.384.447H3.183l.7-4.424Z" transform="translate(0 0)" fill="#253b80"/>
</svg>
