<svg id="Product---business-_x28_desktop_x29_" xmlns="http://www.w3.org/2000/svg" width="56.98" height="13.16" viewBox="0 0 56.98 13.16">
  <path id="Page-1" d="M689.763,1603.71h2.756v-12.931h-2.756Zm17.455-7.464V1595.1h-2.6v8.635h2.6v-4.525a1.914,1.914,0,0,1,2.5-1.607h.023v-2.5a3.022,3.022,0,0,0-2.526,1.148Zm-8.865,5.466a2.322,2.322,0,1,1,2.434-2.32,2.369,2.369,0,0,1-2.434,2.32Zm2.411-6.04a4.568,4.568,0,0,0-7.188,3.721,4.558,4.558,0,0,0,4.547,4.547,4.736,4.736,0,0,0,2.641-.827v.6h2.251v-8.636h-2.251Zm15.457-.827a3.15,3.15,0,0,0-2.664,1.194v-.965h-2.6v8.635h2.6v-4.731a1.819,1.819,0,0,1,1.952-1.952,1.7,1.7,0,0,1,1.791,1.929v4.731h2.6V1598.2a3.425,3.425,0,0,0-3.675-3.353Zm16.766,5.811a1.631,1.631,0,1,0,1.631,1.631,1.637,1.637,0,0,0-1.631-1.631Zm-7.418,1.057a2.322,2.322,0,1,1,2.435-2.32,2.369,2.369,0,0,1-2.435,2.32Zm2.435-6.04a4.568,4.568,0,0,0-7.189,3.721,4.558,4.558,0,0,0,4.547,4.547,4.736,4.736,0,0,0,2.641-.827v.6h2.251v-8.636H728Zm3.881-.436H732a.105.105,0,0,1,.115.092c0,.069-.023.092-.115.092h-.115Zm0,.3H732l.115.253h.115l-.115-.253a.182.182,0,0,0,.115-.184.212.212,0,0,0-.23-.207h-.23v.643h.115v-.253Zm-54.247,8.176h2.871v-12.931h-2.871Zm10.243-12.931H685.1a7.653,7.653,0,0,1-4.18,6.683l4.295,6.247h3.491l-3.9-5.673a10.373,10.373,0,0,0,3.078-7.257Zm44.1,4.18a.505.505,0,1,1-.505.505.51.51,0,0,1,.505-.505Zm0,1.125a.62.62,0,1,0-.62-.62.618.618,0,0,0,.62.62Z" transform="translate(-677.637 -1590.779)" fill="#fff"/>
</svg>
