<svg id="Group_2940" data-name="Group 2940" xmlns="http://www.w3.org/2000/svg" width="28.177" height="24.835" viewBox="0 0 28.177 24.835">
  <path id="Path_1731" data-name="Path 1731" d="M0,1.841V22.994a1.846,1.846,0,0,0,1.841,1.841H14.48c9.555,0,13.7-5.348,13.7-12.445C28.177,5.33,24.035,0,14.48,0H1.841A1.846,1.846,0,0,0,0,1.841Z" fill="#fff"/>
  <path id="Path_1732" data-name="Path 1732" d="M91.9,44.778v15.63h6.8c6.177,0,8.855-3.489,8.855-8.423,0-4.722-2.679-8.386-8.855-8.386H93.078A1.181,1.181,0,0,0,91.9,44.778Z" transform="translate(-83.44 -39.587)" fill="#c06"/>
  <g id="Group_2939" data-name="Group 2939" transform="translate(1.721 1.694)">
    <g id="Group_2938" data-name="Group 2938">
      <path id="Path_1733" data-name="Path 1733" d="M31.458,39.857H20.467A1.768,1.768,0,0,1,18.7,38.09V20.167A1.768,1.768,0,0,1,20.467,18.4H31.458c10.429,0,11.985,6.711,11.985,10.706C43.443,36.037,39.181,39.857,31.458,39.857ZM20.467,18.989a1.175,1.175,0,0,0-1.178,1.178V38.09a1.175,1.175,0,0,0,1.178,1.178H31.458c7.346,0,11.4-3.608,11.4-10.162,0-8.8-7.143-10.116-11.4-10.116H20.467Z" transform="translate(-18.7 -18.4)"/>
    </g>
  </g>
</svg>
