<svg xmlns="http://www.w3.org/2000/svg" width="50.248" height="21.315" viewBox="0 0 50.248 21.315">
  <g id="Group_2949" data-name="Group 2949" transform="translate(-22.436 -29.056)">
    <g id="Group_2934" data-name="Group 2934" transform="translate(22.435 29.055)">
      <path id="Path_1726" data-name="Path 1726" d="M41.59,31.8a3.856,3.856,0,0,0,.887-2.749,3.824,3.824,0,0,0-2.535,1.312,3.61,3.61,0,0,0-.909,2.642A3.19,3.19,0,0,0,41.59,31.8" transform="translate(-32.094 -29.055)" fill="#fff"/>
      <path id="Path_1727" data-name="Path 1727" d="M32.808,38.975c-1.412-.084-2.612.8-3.286.8s-1.707-.759-2.824-.738a4.163,4.163,0,0,0-3.539,2.15c-1.517,2.615-.4,6.493,1.075,8.622.716,1.053,1.58,2.213,2.717,2.172,1.075-.042,1.5-.7,2.8-.7s1.685.7,2.823.675c1.18-.021,1.918-1.054,2.634-2.109a9.358,9.358,0,0,0,1.179-2.424,3.829,3.829,0,0,1-2.3-3.479,3.9,3.9,0,0,1,1.854-3.268,4.036,4.036,0,0,0-3.139-1.707" transform="translate(-22.435 -34.831)" fill="#fff"/>
    </g>
    <g id="Group_2935" data-name="Group 2935" transform="translate(39.172 30.261)">
      <path id="Path_1728" data-name="Path 1728" d="M68.459,31.944a4.962,4.962,0,0,1,5.205,5.194,5.017,5.017,0,0,1-5.282,5.216h-3.4v5.4H62.53V31.944h5.929Zm-3.474,8.351H67.8c2.137,0,3.353-1.151,3.353-3.145s-1.216-3.134-3.342-3.134H64.985Z" transform="translate(-62.53 -31.944)" fill="#fff"/>
      <path id="Path_1729" data-name="Path 1729" d="M90.74,50.171c0-2.017,1.545-3.255,4.285-3.408l3.156-.186v-.888c0-1.282-.866-2.049-2.312-2.049a2.207,2.207,0,0,0-2.433,1.688H91.2c.131-2.082,1.907-3.617,4.756-3.617,2.794,0,4.581,1.479,4.581,3.792v7.945H98.269v-1.9h-.055a4.119,4.119,0,0,1-3.638,2.093C92.318,53.645,90.74,52.242,90.74,50.171Zm7.441-1.041v-.91l-2.838.175c-1.414.1-2.214.723-2.214,1.71,0,1.008.833,1.666,2.1,1.666A2.763,2.763,0,0,0,98.181,49.13Z" transform="translate(-78.965 -37.634)" fill="#fff"/>
      <path id="Path_1730" data-name="Path 1730" d="M117.751,57.979V56.061a4.381,4.381,0,0,0,.767.044,1.92,1.92,0,0,0,2.049-1.644c0-.022.208-.7.208-.712l-4.164-11.54h2.564l2.915,9.381h.044l2.915-9.381h2.5L123.23,54.341c-.986,2.795-2.126,3.693-4.515,3.693A9.156,9.156,0,0,1,117.751,57.979Z" transform="translate(-94.037 -37.924)" fill="#fff"/>
    </g>
  </g>
</svg>
